TITLE "WEFUNK SHOW #855"
PERFORMER "WEFUNK RADIO"
REM Year  : 2016
REM Genre : HipHop
FILE "WEFUNK_Show_855_2016-03-11.mp3" MP3
	TRACK 01 AUDIO
		TITLE "intro"
		PERFORMER "WEFUNK RADIO"
		INDEX 01 00:00:00
	TRACK 02 AUDIO
		TITLE "ain't going nowhere"
		PERFORMER "fredy v."
		INDEX 01 01:14:37
	TRACK 03 AUDIO
		TITLE "talk (over magnetic soul - brass thing)"
		PERFORMER "WEFUNK RADIO"
		INDEX 01 04:19:14
	TRACK 04 AUDIO
		TITLE "sunset haze"
		PERFORMER "tryezz"
		INDEX 01 11:21:50
	TRACK 05 AUDIO
		TITLE "untitled 08"
		PERFORMER "kendrick lamar"
		INDEX 01 13:21:34
	TRACK 06 AUDIO
		TITLE "move (marc de clive-lowe remix)"
		PERFORMER "david borsu"
		INDEX 01 16:43:37
	TRACK 07 AUDIO
		TITLE "people skillz (say werd)"
		PERFORMER "disflex 6"
		INDEX 01 20:48:21
	TRACK 08 AUDIO
		TITLE "introducing the brain busters"
		PERFORMER "murs & 2mex"
		INDEX 01 25:39:18
	TRACK 09 AUDIO
		TITLE "first things last"
		PERFORMER "daddy kev feat. mikah 9"
		INDEX 01 28:41:51
	TRACK 10 AUDIO
		TITLE "launch padlock smith"
		PERFORMER "radioinactive"
		INDEX 01 31:51:36
	TRACK 11 AUDIO
		TITLE "wayne neutron"
		PERFORMER "sonic sum"
		INDEX 01 35:09:66
	TRACK 12 AUDIO
		TITLE "lost in paris"
		PERFORMER "jim dunloop"
		INDEX 01 39:07:52
	TRACK 13 AUDIO
		TITLE "change for the world"
		PERFORMER "charles bradley"
		INDEX 01 41:37:49
	TRACK 14 AUDIO
		TITLE "i don't know why"
		PERFORMER "o.v. wright"
		INDEX 01 45:06:53
	TRACK 15 AUDIO
		TITLE "i got bills to pay"
		PERFORMER "johnny k."
		INDEX 01 48:15:22
	TRACK 16 AUDIO
		TITLE "devil woman"
		PERFORMER "clarence carter"
		INDEX 01 50:22:06
	TRACK 17 AUDIO
		TITLE "what's your world"
		PERFORMER "gloria ann taylor"
		INDEX 01 52:56:24
	TRACK 18 AUDIO
		TITLE "heaven shine"
		PERFORMER "funkshone"
		INDEX 01 56:38:30
	TRACK 19 AUDIO
		TITLE "architectonic"
		PERFORMER "divine styler"
		INDEX 01 59:56:13
	TRACK 20 AUDIO
		TITLE "conspiracies"
		PERFORMER "material feat. kut masta kurt & kool keith"
		INDEX 01 65:05:55
	TRACK 21 AUDIO
		TITLE "armageddon at your door"
		PERFORMER "supernatural"
		INDEX 01 70:43:00
	TRACK 22 AUDIO
		TITLE "crayzay (mike ladd remix)"
		PERFORMER "rammellzee"
		INDEX 01 74:57:60
	TRACK 23 AUDIO
		TITLE "nude paper"
		PERFORMER "beans"
		INDEX 01 78:10:16
	TRACK 24 AUDIO
		TITLE "fool time"
		PERFORMER "tes"
		INDEX 01 81:21:09
	TRACK 25 AUDIO
		TITLE "monogram"
		PERFORMER "pyramid vritra"
		INDEX 01 84:15:15
	TRACK 26 AUDIO
		TITLE "hang it up anthem"
		PERFORMER "infesticons"
		INDEX 01 86:42:51
	TRACK 27 AUDIO
		TITLE "economics"
		PERFORMER "m.f. grimm & drasar monumental"
		INDEX 01 90:20:58
	TRACK 28 AUDIO
		TITLE "repetition"
		PERFORMER "siah"
		INDEX 01 93:49:50
	TRACK 29 AUDIO
		TITLE "pot full o' gold"
		PERFORMER "shape shifters"
		INDEX 01 96:51:74
	TRACK 30 AUDIO
		TITLE "sadie"
		PERFORMER "anderson .paak"
		INDEX 01 102:46:55
	TRACK 31 AUDIO
		TITLE "break away"
		PERFORMER "cool uncle feat. jessie ware"
		INDEX 01 104:38:17
	TRACK 32 AUDIO
		TITLE "stank nebula"
		PERFORMER "greg blackman & percy filth feat. jack jones"
		INDEX 01 107:01:09
	TRACK 33 AUDIO
		TITLE "talk (over callum connor feat. mike b. - wake up)"
		PERFORMER "WEFUNK RADIO"
		INDEX 01 110:57:18
	TRACK 34 AUDIO
		TITLE "ave."
		PERFORMER "hodgy beats"
		INDEX 01 116:15:18
	TRACK 35 AUDIO
		TITLE "turnin' me up"
		PERFORMER "b.j. the chicago kid"
		INDEX 01 118:00:02
	TRACK 36 AUDIO
		TITLE "vision"
		PERFORMER "kuf knotz feat. kimmy gonzalez"
		INDEX 01 120:44:05